The.Encounter.Paradise.Lost.2012.DVDRiP.XviD Acesn8s

Format                                   : AVI
Format/Info                              : Audio Video Interleave
File size                                : 705 MiB
Duration                                 : 1h 44mn
Overall bit rate                         : 943 Kbps
Writing library                          : VirtualDub build 34807/release

Video
ID                                       : 0
Format                                   : MPEG-4 Visual
Format profile                           : Advanced Simple@L5
Format settings, BVOP                    : 2
Format settings, QPel                    : No
Format settings, GMC                     : No warppoints
Format settings, Matrix                  : Default (H.263)
Muxing mode                              : Packed bitstream
Codec ID                                 : XVID
Codec ID/Hint                            : XviD
Duration                                 : 1h 44mn
Bit rate                                 : 791 Kbps
Width                                    : 720 pixels
Height                                   : 400 pixels
Display aspect ratio                     : 16:9
Frame rate                               : 23.976 fps
Color space                              : YUV
Chroma subsampling                       : 4:2:0
Bit depth                                : 8 bits
Scan type                                : Progressive
Compression mode                         : Lossy
Bits/(Pixel*Frame)                       : 0.046
Stream size                              : 592 MiB (84%)
Writing library                          : XviD 64

Audio
ID                                       : 1
Format                                   : MPEG Audio
Format version                           : Version 1
Format profile                           : Layer 3
Mode                                     : Joint stereo
Mode extension                           : MS Stereo
Codec ID                                 : 55
Codec ID/Hint                            : MP3
Duration                                 : 1h 44mn
Bit rate mode                            : Constant
Bit rate                                 : 128 Kbps
Channel(s)                               : 2 channels
Sampling rate                            : 48.0 KHz
Compression mode                         : Lossy
Stream size                              : 95.7 MiB (14%)
Alignment                                : Split accross interleaves
Interleave, duration                     : 17 ms (1.00 video frame)
Interleave, preload duration             : 500 ms
Writing library                          : LAME3.99.5
Subs                                     : English .srt

IMDb:
 
http://www.imdb.com/title/tt2209792/

Cast: 

David A.R. White, Bruce Marchiano, Gary Daniels

Plot: 

Seven years after the world's most devastating tsunami in Thailand six strangers 
find themselves trapped in a beach side resort on the brink of an oncoming hurricane. Each of their hearts are broken and silently cry out on the most desperate night of their lives. As the storm rages on and the six strangers fall deeper into the heart of darkness another guest arrives at the hotel. He says he is Jesus Christ, and he knows what each of them suffers from. Knowing their dire need, he came to bring them all a message of hope and rescue them from the darkest corners of their own hearts.

Screens:
 
http://image.bayimg.com/718bfab13dcafaa62995c08af850a40d1f5c311a.jpg
 
http://image.bayimg.com/f6091fadca8d5929e2711c4374fc76b66ee1aad3.jpg
 
http://image.bayimg.com/45eecc1b342dd89258886ca5fcdd76b2f46e00ed.jpg
 
http://image.bayimg.com/71f00aa7dc46497033364261c0663621963a460a.jpg
 
http://image.bayimg.com/03221b57c0d77830a0b14c6b33f2a1ecc8a111b6.jpg